<svg width="32" height="33" viewBox="0 0 32 33" fill="none" xmlns="http://www.w3.org/2000/svg">
<rect width="32" height="33" fill="#F5F5F5"/>
<g id="&#237;&#131;&#156;&#236;&#138;&#164;&#237;&#129;&#172; (PM : &#236;&#157;&#180;&#236;&#138;&#185;&#236;&#136;&#152; / &#235;&#148;&#148;&#236;&#158;&#144;&#236;&#157;&#184; : &#234;&#185;&#128;&#236;&#157;&#128;&#237;&#157;&#172; / &#234;&#176;&#156;&#235;&#176;&#156; : OOO)">
<path d="M-1217 -1775C-1217 -1776.1 -1216.1 -1777 -1215 -1777H2691C2692.1 -1777 2693 -1776.1 2693 -1775V1041C2693 1042.1 2692.1 1043 2691 1043H-1215C-1216.1 1043 -1217 1042.1 -1217 1041V-1775Z" fill="#E5E5E5"/>
<path d="M-1215 -1769H2691V-1785H-1215V-1769ZM2685 -1775V1041H2701V-1775H2685ZM2691 1035H-1215V1051H2691V1035ZM-1209 1041V-1775H-1225V1041H-1209ZM-1215 1035C-1211.69 1035 -1209 1037.69 -1209 1041H-1225C-1225 1046.52 -1220.52 1051 -1215 1051V1035ZM2685 1041C2685 1037.69 2687.69 1035 2691 1035V1051C2696.52 1051 2701 1046.52 2701 1041H2685ZM2691 -1769C2687.69 -1769 2685 -1771.69 2685 -1775H2701C2701 -1780.52 2696.52 -1785 2691 -1785V-1769ZM-1215 -1785C-1220.52 -1785 -1225 -1780.52 -1225 -1775H-1209C-1209 -1771.69 -1211.69 -1769 -1215 -1769V-1785Z" fill="#E8344E"/>
<g id="Footer">
<mask id="path-3-inside-1_12_2" fill="white">
<path d="M-994 -367H446V204H-994V-367Z"/>
</mask>
<path d="M-994 -367H446V204H-994V-367Z" fill="white"/>
<path d="M-994 -366H446V-368H-994V-366Z" fill="#E4EBF0" mask="url(#path-3-inside-1_12_2)"/>
<g id="Frame 2436">
<g id="Frame 1000006414">
<g id="Frame 1000006443">
<g id="Frame 1000006443_2">
<g id="Frame 1000006382">
<g id="footer_logo_insta">
<g id="Frame">
<g id="Group">
<path id="Vector" d="M16 8.62228C18.4045 8.62228 18.6868 8.633 19.6372 8.67587C20.5161 8.71517 20.9913 8.86165 21.3093 8.9867C21.7309 9.15105 22.031 9.34397 22.3454 9.65838C22.6598 9.97278 22.8563 10.2729 23.0171 10.6945C23.1386 11.0125 23.2886 11.4876 23.3279 12.3665C23.3708 13.3169 23.3815 13.5991 23.3815 16.0036C23.3815 18.4081 23.3708 18.6903 23.3279 19.6407C23.2886 20.5196 23.1421 20.9947 23.0171 21.3127C22.8527 21.7343 22.6598 22.0344 22.3454 22.3488C22.031 22.6632 21.7309 22.8597 21.3093 23.0205C20.9913 23.142 20.5161 23.292 19.6372 23.3313C18.6868 23.3742 18.4045 23.3849 16 23.3849C13.5955 23.3849 13.3132 23.3742 12.3628 23.3313C11.4839 23.292 11.0087 23.1455 10.6908 23.0205C10.2692 22.8562 9.96904 22.6632 9.65463 22.3488C9.34022 22.0344 9.14371 21.7343 8.98293 21.3127C8.86146 20.9947 8.7114 20.5196 8.67209 19.6407C8.62922 18.6903 8.6185 18.4081 8.6185 16.0036C8.6185 13.5991 8.62922 13.3169 8.67209 12.3665C8.7114 11.4876 8.85788 11.0125 8.98293 10.6945C9.14728 10.2729 9.34022 9.97278 9.65463 9.65838C9.96904 9.34397 10.2692 9.14747 10.6908 8.9867C11.0087 8.86522 11.4839 8.71517 12.3628 8.67587C13.3132 8.62942 13.5991 8.62228 16 8.62228ZM16 7.00024C13.5562 7.00024 13.2489 7.01096 12.2878 7.05384C11.3303 7.09671 10.6765 7.25034 10.1048 7.47185C9.51171 7.70051 9.01151 8.01134 8.51132 8.51152C8.01112 9.01171 7.70385 9.51547 7.47162 10.105C7.2501 10.6766 7.09647 11.3304 7.05359 12.2915C7.01072 13.249 7 13.5563 7 16C7 18.4438 7.01072 18.7511 7.05359 19.7121C7.09647 20.6696 7.2501 21.3234 7.47162 21.8987C7.70028 22.4917 8.01112 22.9919 8.51132 23.4921C9.01151 23.9923 9.51529 24.2995 10.1048 24.5318C10.6765 24.7533 11.3303 24.9069 12.2914 24.9498C13.2525 24.9927 13.5562 25.0034 16.0036 25.0034C18.451 25.0034 18.7547 24.9927 19.7158 24.9498C20.6733 24.9069 21.3271 24.7533 21.9024 24.5318C22.4955 24.3031 22.9957 23.9923 23.4959 23.4921C23.9961 22.9919 24.3033 22.4882 24.5356 21.8987C24.7571 21.327 24.9107 20.6732 24.9536 19.7121C24.9964 18.7511 25.0072 18.4474 25.0072 16C25.0072 13.5527 24.9964 13.249 24.9536 12.2879C24.9107 11.3304 24.7571 10.6766 24.5356 10.1014C24.3069 9.50832 23.9961 9.00814 23.4959 8.50795C22.9957 8.00776 22.4919 7.70051 21.9024 7.46828C21.3307 7.24676 20.6769 7.09314 19.7158 7.05026C18.7511 7.01096 18.4438 7.00024 16 7.00024Z" fill="#9DA7AE"/>
<path id="Vector_2" d="M16.0002 11.3811C13.4492 11.3811 11.377 13.4497 11.377 16.0043C11.377 18.5588 13.4456 20.6274 16.0002 20.6274C18.5548 20.6274 20.6235 18.5588 20.6235 16.0043C20.6235 13.4497 18.5548 11.3811 16.0002 11.3811ZM16.0002 19.0018C14.3424 19.0018 12.999 17.6584 12.999 16.0007C12.999 14.3429 14.3424 12.9996 16.0002 12.9996C17.658 12.9996 19.0014 14.3429 19.0014 16.0007C19.0014 17.6584 17.658 19.0018 16.0002 19.0018Z" fill="#9DA7AE"/>
<path id="Vector_3" d="M20.8056 12.2743C21.4015 12.2743 21.8846 11.7912 21.8846 11.1953C21.8846 10.5994 21.4015 10.1163 20.8056 10.1163C20.2096 10.1163 19.7266 10.5994 19.7266 11.1953C19.7266 11.7912 20.2096 12.2743 20.8056 12.2743Z" fill="#9DA7AE"/>
</g>
</g>
</g>
</g>
</g>
</g>
</g>
</g>
</g>
</g>
</svg>
